<svg viewBox="0 0 48 48" xmlns="http://www.w3.org/2000/svg"><g><path d="M24 7.6h8.1a10.8 10.8 0 0 1 3.7.7 6.7 6.7 0 0 1 3.8 3.8 10.8 10.8 0 0 1 .7 3.7c.1 2.1.1 2.8.1 8.1s0 6-.1 8.1a10.8 10.8 0 0 1-.7 3.7 6.7 6.7 0 0 1-3.8 3.8 10.8 10.8 0 0 1-3.7.7H15.9a10.8 10.8 0 0 1-3.7-.7 6.7 6.7 0 0 1-3.8-3.8 10.8 10.8 0 0 1-.7-3.7c-.1-2.1-.1-2.8-.1-8.1s0-6 .1-8.1a10.8 10.8 0 0 1 .7-3.7 6.7 6.7 0 0 1 3.8-3.8 10.8 10.8 0 0 1 3.7-.7H24M24 4h-8.2a17.9 17.9 0 0 0-4.9.9 10 10 0 0 0-3.5 2.5 8.5 8.5 0 0 0-2.3 3.5 14.5 14.5 0 0 0-1 4.9C4 17.9 4 18.6 4 24s0 6.1.1 8.2a14.5 14.5 0 0 0 1 4.9 8.5 8.5 0 0 0 2.3 3.5 8.5 8.5 0 0 0 3.5 2.3 14.5 14.5 0 0 0 4.9 1h16.4a14.5 14.5 0 0 0 4.9-1 8.5 8.5 0 0 0 3.5-2.3 10 10 0 0 0 2.4-3.5 17.9 17.9 0 0 0 .9-4.9c.1-2.1.1-2.8.1-8.2s0-6.1-.1-8.2a17.9 17.9 0 0 0-.9-4.9 10 10 0 0 0-2.4-3.5A10 10 0 0 0 37.1 5a17.9 17.9 0 0 0-4.9-.9H24"/><path d="M24 13.7A10.3 10.3 0 1 0 34.3 24 10.3 10.3 0 0 0 24 13.7m0 17a6.7 6.7 0 1 1 6.7-6.7 6.7 6.7 0 0 1-6.7 6.7M37.1 13.3a2.4 2.4 0 1 1-2.4-2.4 2.4 2.4 0 0 1 2.4 2.4"/></g></svg>