<svg xmlns="http://www.w3.org/2000/svg" fill="currentColor" class="svg-icon" overflow="hidden" style="width:1em;height:1em;vertical-align:middle" viewBox="0 0 1251 1024"><path fill="#ffffff" d="m739.556 592.44-73.558 73.558a56.889 56.889 0 0 1-80.44 0L512 592.441 194.048 910.45l863.289-.228-317.781-317.781zm398.222-398.221L819.996 512l317.782 317.781V194.22zM431.559 512 113.778 194.219V829.78L431.559 512zm194.219 35.214 432.014-433.607-863.8.17 431.786 433.437zM113.778 0h1024c62.805 0 113.778 50.802 113.778 113.493v797.014A113.664 113.664 0 0 1 1137.778 1024h-1024C50.972 1024 0 973.198 0 910.507V113.493C0 50.802 51.03 0 113.778 0z"/></svg>