<svg xmlns="http://www.w3.org/2000/svg"><defs><pattern id="prefix__a" patternUnits="userSpaceOnUse" width="30" height="60" patternTransform="scale(2)"><rect width="100%" height="100%" fill="hsla(129, 35%, 32%, 1)"/><path d="M9.27 0L0 6.48v23.49l15 10V60h5.16L30 53.46V29.97L15 19.96V0zm5.83 0L30 9.9V6.48L20.26 0zM15 23.4l9.9 6.57-9.9 6.58-9.9-6.58zM0 50.1v3.36l9.22 6.48.1.06h5.6l-.1-.06z" fill="hsla(128, 35%, 21%, 1)"/><path d="M0 0v3.4L5 0zm24.48 0L30 3.4V0zM15 26.2l-5.68 3.77L15 33.73l5.68-3.76zm15 30.2L24.48 60H30zm-30 0V60h5z" fill="hsla(128, 35%, 21%, 1)"/></pattern></defs><rect width="800%" height="800%" fill="url(#prefix__a)"/></svg>